Patient4_TMGait_0pt7_01_left_30_EMG.mot
version=1
nRows=13
nColumns=33
inDegrees=no
endheader
time	1LAddLong	2LGlutMax	3LGlutMed	4LIliopsoas	5LSemiMemb	6LBicFemLong	7LRecFem	8LVastMed	9LVastLat	10LGasMed	11LTibAnt	12lTibPost	13LPeroneusLong	14LSol	15LExtDigLong	16LFlexDigLong	17RAddLong	18RGlutMax	19RGlutMed	20RIliopsoas	21RSemiMemb	22RBicFemLong	23RRecFem	24RVastMed	25RVastLat	26RGasMed	27RTibAnt	28RTibPost	29RPeroneusLong	30RSol	31RExtDigLong	32RFlexDigLong
34.64	-0.007629	0.90759	0.063019	-0.002747	-0.018768	-0.04776	-0.1889	0.018616	-0.19608	-0.03418	0.23651	0.057068	-0.1268	-0.08255	0.65659	0.052948	0.007782	0.34317	-0.65018	0.000763	0.13077	0.1889	0.23743	-0.016785	0.26947	0.02121	-0.13138	0.28046	-0.47073	-0.014343	-0.011139	0.005646
34.641	0.006409	0.99472	0.055847	0.002136	0.006256	-0.080719	-0.20859	0.028992	-0.14069	-0.08667	0.077667	0.059662	-0.005951	0.15839	0.51376	0.047302	0.015717	0.33936	0.028839	0.018768	0.3122	-0.10574	0.34134	-0.13596	0.18616	0.007782	0.11017	0.075531	-2.252	-0.20172	-0.002289	-0.003357
34.642	0.007324	1.0764	0.037842	0.017395	0.01297	-0.058289	-0.21011	0.029755	-0.089264	-0.12528	-0.28686	0.064392	0.13489	0.31052	0.20035	0.07019	0.011444	0.30655	0.35416	0.039978	0.24857	-0.16907	0.14587	-0.14511	0.077972	0.016479	0.29587	0.032501	-2.5298	-0.19653	-0.004883	-0.002594
34.643	0.003967	1.098	0.016479	0.002289	0.011749	-0.051727	-0.19791	0.040894	-0.072327	-0.1033	-0.17105	0.044556	0.11566	0.27008	0.19058	0.067596	-0.012207	0.31082	1.2021	0.10162	-0.13809	-0.093689	-0.20935	-0.19775	0.013428	-0.001373	0.078735	0.023499	-0.34302	0.11948	-0.005188	-0.007935
34.644	0.006409	1.1548	-0.017395	-0.007935	0.008698	-0.032806	-0.20569	0.032959	-0.040588	-0.029907	0.14801	0.034943	0.015564	0.168	0.12604	0.054474	0.003967	0.33508	0.79483	0.17639	-0.26733	0.12192	-0.13016	-0.28915	-0.036469	-0.033264	-0.072937	0.012512	1.0701	0.15396	-0.002136	-0.00061
34.645	0.004883	1.1743	0.008087	0	0.011749	-0.035706	-0.23529	0.04425	-0.023499	-0.019531	0.44373	0.037231	-0.092773	0.054626	-0.28686	0.037994	-0.021362	0.33814	0.85983	-0.010376	-0.19287	0.46219	0.066528	-0.51361	-0.09613	-0.013733	-0.079041	0.00885	1.337	0.13565	-0.000305	0.009308
34.646	0.005646	1.1772	0.041656	0.002136	0.007782	-0.030823	-0.26871	0.033875	0.002899	-0.056458	0.38742	0.036469	-0.14511	0.10757	1.2033	0.055237	-0.047913	0.27054	0.15076	-0.1648	-0.026245	0.39825	-0.092163	-0.51346	-0.053101	-0.005951	-0.085449	0.001678	0.44678	0.12207	-0.002289	0.009155
34.647	0.002289	1.1691	-0.018005	0.00824	0.005341	-0.009766	-0.22369	0.020599	0.033264	-0.079041	-0.083313	0.035706	-0.089264	0.009308	-0.44586	0.052948	-0.050659	0.21683	-1.2016	-0.063782	0.29602	0.15717	-0.097504	-0.27252	0.1471	-0.033569	-0.050964	0.002136	-0.25559	0.082397	-0.002441	0.005035
34.648	0.009918	1.176	-0.009308	0.001984	0.011902	-0.025482	-0.18417	0.010529	0.069275	-0.084229	-0.51651	0.031738	0.067596	-0.060425	-0.24612	0.0354	-0.035858	0.21469	-2.2285	0.005951	0.072937	0.011749	-0.12299	-0.085754	0.33569	-0.051117	0.14023	0.00473	-0.27176	-0.15289	-0.003052	0.002899
34.649	0.006256	1.0976	0.013275	0.013428	0.009308	-0.039825	-0.18341	0.017395	0.09613	-0.052795	-0.48752	0.02243	0.12711	-0.11536	-0.36789	0.016174	-0.013733	0.050507	-0.80002	0.065765	-0.030975	0.053711	-0.036469	0.13458	0.35782	-0.021667	0.084076	-0.003815	-0.094452	-0.45303	-0.001678	0.011444
34.65	0.008545	1.1006	-0.008698	0.01297	0.007324	-0.062561	-0.1683	0.00824	0.12253	0.006866	-0.11002	0.019684	0.038147	-0.11124	-0.23483	0.010834	-0.004883	-0.012817	0.10132	0.019989	-0.046234	0.17731	0.14847	0.30273	0.2945	0.005798	0.25909	-0.007935	-0.20355	-0.4776	-0.000305	0.001984
34.651	0.014038	1.0175	0.00473	0.009308	0.007019	-0.064697	-0.18066	0.018463	0.12955	-0.007324	0.01709	0.018005	0.048218	-0.086365	-0.28992	0.00885	0.008698	-0.18509	-0.38269	-0.045929	0.024414	0.23697	0.23086	0.43686	0.036011	-0.00061	0.41687	-0.01358	-0.54764	-0.27145	0.004578	0.008392
34.652	0.013885	0.94345	0.027161	0.000763	0.009918	-0.052643	-0.168	0.022736	0.15396	-0.019684	-0.1326	0.022736	0.041046	0.020294	-0.53528	0.018158	0.025787	-0.26215	0.43472	-0.091858	0.024261	0.25482	0.23422	0.45105	-0.13519	0.00473	-0.14481	0.033417	0.61371	-0.34958	-0.001221	0.006409
